<svg width="12" height="12" viewBox="0 0 12 12" fill="none" xmlns="http://www.w3.org/2000/svg">
<path fill-rule="evenodd" clip-rule="evenodd" d="M11.674 5.55906C11.8525 5.72285 11.9673 5.90288 11.9941 6.0946C12.0216 6.29295 11.9517 6.47647 11.8128 6.63215C11.6755 6.78602 11.4651 6.92077 11.1904 7.03335C10.1158 7.47371 4.32853 10.3071 1.31996 11.8518C1.1387 11.9449 0.93319 11.999 0.739477 12C0.546835 12.001 0.356957 11.9489 0.216195 11.8156C0.0717043 11.6787 -0.0102873 11.4668 0.00103779 11.181C0.0123265 10.8998 0.113152 10.5457 0.32864 10.109C1.08318 8.57987 1.59212 7.16309 1.75104 6.64927L1.75278 6.64405C1.87201 6.31533 1.88296 5.87408 1.56341 4.89259C1.30814 4.10857 1.15774 3.73489 1.00686 3.36056C0.854871 2.98354 0.702049 2.60496 0.44458 1.81436C0.315108 1.41663 0.240288 1.07903 0.22558 0.807333C0.210991 0.536968 0.255479 0.313112 0.383658 0.167574C0.511677 0.0224743 0.702398 -0.0212355 0.933593 0.00909897C1.16612 0.0395851 1.45545 0.146039 1.79974 0.325962C3.16738 1.04094 9.62143 4.51549 10.9119 5.08979C11.2393 5.23546 11.494 5.39403 11.674 5.55906Z" fill="#002233" fill-opacity="0.2"/>
</svg>
