<svg width="12" height="12" viewBox="0 0 12 12" fill="none" xmlns="http://www.w3.org/2000/svg">
<path fill-rule="evenodd" clip-rule="evenodd" d="M6.44094 11.674C6.27715 11.8525 6.09712 11.9673 5.9054 11.9941C5.70705 12.0216 5.52353 11.9517 5.36785 11.8128C5.21398 11.6755 5.07923 11.4651 4.96665 11.1904C4.52629 10.1158 1.69293 4.32853 0.148173 1.31996C0.0551367 1.1387 0.000977769 0.93319 1.41155e-05 0.739477C-0.000986685 0.546835 0.0511431 0.356957 0.184392 0.216195C0.3213 0.0717043 0.533217 -0.0102873 0.819031 0.00103783C1.10024 0.0123266 1.4543 0.113153 1.89102 0.32864C3.42013 1.08318 4.83691 1.59212 5.35073 1.75104L5.35595 1.75278C5.68467 1.87201 6.12592 1.88296 7.10741 1.56341C7.89143 1.30814 8.26511 1.15774 8.63944 1.00686C9.01646 0.854871 9.39504 0.70205 10.1856 0.444581C10.5834 0.315108 10.921 0.240289 11.1927 0.225581C11.463 0.210991 11.6869 0.25548 11.8324 0.383658C11.9775 0.511678 12.0212 0.702398 11.9909 0.933593C11.9604 1.16612 11.854 1.45545 11.674 1.79974C10.9591 3.16738 7.48451 9.62143 6.91021 10.9119C6.76454 11.2393 6.60597 11.494 6.44094 11.674Z" fill="#002233"/>
</svg>
